:FULLY-SPECIFIED
:FORCE-ALL-JOINTS-BE-3DOF
:DEGREES
2650
root -1.68289 15.3029 -28.6304 1191.62 -69.7628 -116.712
lfemur -31.2218 25.2784 -1.72417
ltibia 59.6982 0 0
lfoot 15.0402 12.8426 0
ltoes 4.78444 0 0
rfemur -33.8624 -22.7177 20.9662
rtibia 66.4812 0 0
rfoot -22.2373 -9.86662 0
rtoes -6.62445 0 0
lowerback 16.1845 3.62973 1.01491
upperback -0.564241 5.10747 1.4089
thorax -9.37235 2.44145 -0.161168
lowerneck -3.6942 9.0839 1.73814
upperneck 6.68734 12.1284 0.671656
head 2.51362 6.11985 0.422423
lclavicle -6.6892e-14 -1.15327e-14 0
lhumerus 40.8906 -25.3908 52.5368
lradius 120.521 0 0
lwrist 1.74208 0 0
lhand -38.1587 393.588 0
lfingers 7.12502 0 0
lthumb -11.182 -656.566 0
rclavicle -6.6892e-14 -1.15327e-14 0
rhumerus -33.088 49.3393 -90.3728
rradius 103.472 0 0
rwrist -44.3279 0 0
rhand -11.2147 -383.117 0
rfingers 7.12502 0 0
rthumb 14.7931 307.787 0
2651
root -1.7816 15.2983 -28.6 1195.41 -68.8585 -120.65
lfemur -31.386 25.4941 -1.69943
ltibia 58.3382 0 0
lfoot 15.6517 12.9082 0
ltoes 5.57369 0 0
rfemur -33.5932 -22.3971 20.7551
rtibia 66.7648 0 0
rfoot -22.4639 -9.82988 0
rtoes -6.55625 0 0
lowerback 16.1676 3.77855 1.14647
upperback -0.558946 5.32212 1.33057
thorax -9.3458 2.53491 -0.371899
lowerneck -3.59278 9.14767 1.79854
upperneck 6.79129 12.2003 0.661483
head 2.57046 6.15294 0.408583
lclavicle -6.81645e-14 -1.15061e-14 0
lhumerus 38.2695 -24.1586 54.2286
lradius 120.026 0 0
lwrist 0.353296 0 0
lhand -38.3266 393.164 0
lfingers 7.12502 0 0
lthumb -11.3445 -657.018 0
rclavicle -6.81645e-14 -1.15061e-14 0
rhumerus -33.5155 49.9662 -90.734
rradius 104.359 0 0
rwrist -46.9164 0 0
rhand -10.5859 -383.017 0
rfingers 7.12502 0 0
rthumb 15.399 307.925 0
2652
root -1.88171 15.2927 -28.5696 1199.18 -67.9513 -124.569
lfemur -31.5722 25.7201 -1.68069
ltibia 56.9992 0 0
lfoot 16.2367 12.9646 0
ltoes 6.317 0 0
rfemur -33.3277 -22.0745 20.5483
rtibia 67.0605 0 0
rfoot -22.6954 -9.80804 0
rtoes -6.49233 0 0
lowerback 16.1516 3.9274 1.27573
upperback -0.55634 5.53665 1.25342
thorax -9.32338 2.62836 -0.580361
lowerneck -3.4906 9.20849 1.85654
upperneck 6.8936 12.2681 0.65458
head 2.62685 6.18398 0.395895
lclavicle -6.93702e-14 -1.14735e-14 0
lhumerus 35.6378 -22.9137 55.935
lradius 119.511 0 0
lwrist -1.02829 0 0
lhand -38.4894 392.742 0
lfingers 7.12502 0 0
lthumb -11.5022 -657.469 0
rclavicle -6.93702e-14 -1.14735e-14 0
rhumerus -33.9473 50.5876 -91.1002
rradius 105.243 0 0
rwrist -49.5065 0 0
rhand -9.9524 -382.924 0
rfingers 7.12502 0 0
rthumb 16.0093 308.058 0
2653
root -1.98349 15.286 -28.5392 1202.94 -67.0485 -128.47
lfemur -31.781 25.9575 -1.6669
ltibia 55.684 0 0
lfoot 16.7952 13.0097 0
ltoes 7.01178 0 0
rfemur -33.0648 -21.7507 20.3462
rtibia 67.3665 0 0
rfoot -22.9325 -9.80153 0
rtoes -6.43437 0 0
lowerback 16.1366 4.07615 1.40281
upperback -0.556671 5.75096 1.17765
thorax -9.30532 2.72173 -0.786404
lowerneck -3.38844 9.2678 1.91309
upperneck 6.9944 12.3337 0.649844
head 2.68262 6.21398 0.38396
lclavicle -7.05062e-14 -1.14355e-14 0
lhumerus 33.0039 -21.6543 57.6501
lradius 118.979 0 0
lwrist -2.40464 0 0
lhand -38.6496 392.321 0
lfingers 7.12502 0 0
lthumb -11.6573 -657.918 0
rclavicle -7.05062e-14 -1.14355e-14 0
rhumerus -34.3903 51.2032 -91.4761
rradius 106.124 0 0
rwrist -52.0978 0 0
rhand -9.3143 -382.836 0
rfingers 7.12502 0 0
rthumb 16.6241 308.184 0
